<?xml version="1.0" encoding="UTF-8" standalone="no"?>
<svg
   version="1.1"
   x="0px"
   y="0px"
   viewBox="0 0 23.990575 22.745714"
   xml:space="preserve"
   id="svg2"
   sodipodi:docname="masquerade.svg"
   width="23.990574"
   height="22.745714"
   inkscape:version="1.4.3 (0d15f75042, 2025-12-25)"
   inkscape:export-filename="masquerade_white.png"
   inkscape:export-xdpi="96"
   inkscape:export-ydpi="96"
   xmlns:inkscape="http://www.inkscape.org/namespaces/inkscape"
   xmlns:sodipodi="http://sodipodi.sourceforge.net/DTD/sodipodi-0.dtd"
   xmlns="http://www.w3.org/2000/svg"
   xmlns:svg="http://www.w3.org/2000/svg"><defs
     id="defs2" /><sodipodi:namedview
     id="namedview2"
     pagecolor="#ffffff"
     bordercolor="#999999"
     borderopacity="1"
     inkscape:showpageshadow="2"
     inkscape:pageopacity="0"
     inkscape:pagecheckerboard="0"
     inkscape:deskcolor="#d1d1d1"
     inkscape:zoom="6.23669"
     inkscape:cx="-17.878073"
     inkscape:cy="41.287927"
     inkscape:window-width="1920"
     inkscape:window-height="1130"
     inkscape:window-x="0"
     inkscape:window-y="0"
     inkscape:window-maximized="1"
     inkscape:current-layer="svg2" /><g
     id="g1"
     transform="translate(0.69736246,1.3007759)"><path
       d="m 1.9883997,18.463054 c 0.9606338,1.116911 2.0760361,1.95645 3.217981,2.436416 0.9036643,0.365919 1.7610216,0.530813 2.5509396,0.544601 3.1494247,0.05498 4.7329777,-2.523509 5.2766837,-3.013838 0.672053,-0.786004 1.701992,-2.52643 2.325402,-4.251312 1.764483,-0.410116 3.084127,-1.062224 4.334603,-1.93486 C 21.3243,10.948932 23.682504,8.5018378 23.238559,5.461822 22.949488,4.2566427 22.290778,3.0349975 21.330319,1.9080781 L 18.879915,-0.95506967 C 18.575838,-1.3005164 18.087492,-1.399021 17.673737,-1.1962496 17.270226,-0.99318369 17.042262,-0.53712624 17.144503,-0.08532163 17.199235,0.20571707 17.65484,2.7540966 14.71931,3.6229195 13.120915,4.085086 11.9446,5.014649 11.301886,6.3036754 10.908104,7.0969744 10.788491,8.215056 11.076144,9.5001737 9.8443718,9.0186444 8.7151858,8.9688997 7.880347,9.2343961 6.5024112,9.67038 5.4045895,10.691413 4.697989,12.199331 c -1.2985008,2.767796 -3.75413627,1.924764 -4.03237656,1.819914 -0.42706664,-0.167522 -0.90959785,-0.02589 -1.17620083,0.349523 -0.26660829,0.375403 -0.24548678,0.885863 0.0485896,1.231017 z M 17.398373,5.9901019 c 0.634394,-0.2389622 0.937817,-0.443662 1.080026,-0.5613158 0.07129,-0.06871 0.142321,-0.1374219 0.213596,-0.2062627 0.121779,-0.1078701 0.282776,-0.1550062 0.432133,-0.1224854 0.15961,0.032819 0.297909,0.125217 0.365348,0.2764411 0.125327,0.2622358 0.230883,0.5240044 0.286567,0.7750169 0.326933,1.315968 -0.125094,2.5782921 -1.26249,3.5585887 -0.03038,0.019478 -0.111241,0.078162 -0.131429,0.08782 -0.838851,0.4954433 -1.193363,0.7591953 -1.345757,0.8865563 -0.152147,0.127377 -0.294699,0.264924 -0.427018,0.402637 -0.101828,0.09822 -0.232741,0.155997 -0.372857,0.153548 l -0.01002,-1.56e-4 C 16.086615,11.23799 15.957727,11.16571 15.869643,11.064182 15.761636,10.942249 15.673901,10.820706 15.596101,10.689322 14.537802,8.9236161 15.53712,6.6969247 17.398336,5.9900522 Z M 5.6750966,16.387062 c 0.081097,-0.05857 0.1522218,-0.117357 0.2332621,-0.186021 0.6910457,-0.570537 1.0015528,-2.312913 3.1075866,-2.696175 0.9230965,-0.173858 1.8192657,0.0618 2.5191727,0.64416 0.118321,0.092 0.226626,0.193925 0.324616,0.315644 0.200162,0.207529 0.162594,0.580984 -0.08296,0.738656 -0.151807,0.10734 -0.304194,0.234841 -0.456343,0.362084 -0.271497,0.22912 -2.0223534,3.213686 -4.8963708,2.034974 C 6.1856791,17.506129 5.9381748,17.361737 5.7009998,17.197571 5.5627201,17.105137 5.485245,16.95378 5.4780264,16.793717 5.4806337,16.643718 5.5535031,16.484932 5.67509,16.387061 Z"
       id="path1"
       sodipodi:nodetypes="ccsccccccccccccccsccscccccccccssccssscccccccccss"
       style="fill:#ffffff" /></g></svg>
