<?xml version="1.0" encoding="UTF-8" standalone="no"?>
<svg
   version="1.1"
   x="0px"
   y="0px"
   viewBox="0 0 24.005219 22.922407"
   xml:space="preserve"
   id="svg2"
   sodipodi:docname="masquerade.svg"
   width="24.005219"
   height="22.922407"
   inkscape:version="1.4.3 (0d15f75042, 2025-12-25)"
   xmlns:inkscape="http://www.inkscape.org/namespaces/inkscape"
   xmlns:sodipodi="http://sodipodi.sourceforge.net/DTD/sodipodi-0.dtd"
   xmlns="http://www.w3.org/2000/svg"
   xmlns:svg="http://www.w3.org/2000/svg"><defs
     id="defs2" /><sodipodi:namedview
     id="namedview2"
     pagecolor="#ffffff"
     bordercolor="#999999"
     borderopacity="1"
     inkscape:showpageshadow="2"
     inkscape:pageopacity="0"
     inkscape:pagecheckerboard="0"
     inkscape:deskcolor="#d1d1d1"
     inkscape:zoom="9.5622594"
     inkscape:cx="26.667338"
     inkscape:cy="11.86958"
     inkscape:window-width="1920"
     inkscape:window-height="1130"
     inkscape:window-x="0"
     inkscape:window-y="0"
     inkscape:window-maximized="1"
     inkscape:current-layer="svg2" /><g
     id="g1"
     transform="translate(-0.99739033,-1.5387965)"><path
       d="m 3.7441218,21.58132 c 0.9799807,1.099975 2.1098635,1.919922 3.26001,2.379883 0.9099121,0.350097 1.7700191,0.5 2.5600581,0.5 3.1499021,0 5.1799311,-2.309937 5.2897951,-2.439942 0.04004,-0.04004 0.07007,-0.08997 0.100097,-0.149902 1.169922,-2.01001 3.75,-1.210083 3.860108,-1.180054 0.690344,0.206766 1.413339,-0.285211 1.289795,-1.150024 -0.01001,-0.03003 -0.529785,-2.75 1.640136,-3.679931 0.05005,-0.03003 0.109864,-0.06006 0.159913,-0.09009 C 22.0742,15.661277 25.994121,12.961204 24.764141,8.2112036 24.454082,7.0112524 23.774151,5.8012915 22.79417,4.6913061 l -2.5,-2.8199463 C 19.984112,1.5312719 19.494121,1.4413061 19.083965,1.651267 18.684063,1.86135 18.464092,2.3213109 18.5742,2.7712621 c 0.05981,0.2900391 0.559814,2.8300781 -2.360108,3.75 -1.590088,0.4899902 -2.75,1.4399414 -3.370117,2.7399902 -0.379883,0.8000487 -0.479981,1.9200437 -0.169922,3.1999517 -1.23999,-0.459961 -2.369873,-0.489991 -3.1999511,-0.209961 -1.3701172,0.459961 -2.4499507,1.5 -3.1301265,3.020019 -1.25,2.790038 -3.7199709,1.989989 -4,1.890014 -0.4299315,-0.160034 -0.909912,-0.01001 -1.1699218,0.369995 -0.2600098,0.380005 -0.2299805,0.890015 0.070068,1.22998 z M 18.934063,8.8413305 c 0.630127,-0.25 0.929932,-0.4599609 1.070068,-0.5800781 0.07007,-0.069946 0.139893,-0.1398926 0.209961,-0.2099609 0.119873,-0.1099854 0.28003,-0.1599121 0.429932,-0.1300049 0.160156,0.030029 0.300049,0.1199951 0.370117,0.2700195 0.129883,0.2600098 0.23999,0.5198975 0.300049,0.7698975 0.349853,1.3100584 -0.08008,2.5800784 -1.200195,3.5800784 -0.03003,0.02002 -0.109864,0.08008 -0.129883,0.09009 -0.830078,0.510009 -1.179932,0.779907 -1.330078,0.909912 -0.149903,0.130005 -0.290039,0.270019 -0.419922,0.410034 -0.100098,0.09998 -0.229981,0.160034 -0.370117,0.160034 0,0 0,0 -0.01001,0 -0.139893,0 -0.27002,-0.07007 -0.359864,-0.170044 -0.110107,-0.119995 -0.199951,-0.23999 -0.280029,-0.369995 -1.08893,-1.746942 -0.128622,-3.9907331 1.719971,-4.7299805 z M 7.3940244,19.441305 c 0.080078,-0.05994 0.1501465,-0.119995 0.2299805,-0.190063 0.6809821,-0.582512 0.9610353,-2.33004 3.0600581,-2.75 0.919922,-0.189942 1.820068,0.03003 2.530029,0.600097 0.119873,0.08997 0.229981,0.189942 0.330078,0.309937 0.203752,0.204002 0.17271,0.578056 -0.07007,0.73999 -0.149902,0.109985 -0.300049,0.240112 -0.449951,0.369995 -0.267457,0.233822 -1.965959,3.248491 -4.8601076,2.120117 -0.2399898,-0.09009 -0.4899898,-0.230102 -0.72998,-0.390136 -0.1398926,-0.08997 -0.2199707,-0.239991 -0.2299805,-0.399903 1e-7,-0.150024 0.070068,-0.310058 0.1899415,-0.410034 z"
       id="path1" /></g></svg>
